HIERARCHY
ROOT Hips
{
	OFFSET 0.00000 0.00000 0.00000
	CHANNELS 6 Xposition Yposition Zposition Zrotation Yrotation Xrotation 
	JOINT LHipJoint
	{
		OFFSET 0 0 0
		CHANNELS 3 Zrotation Yrotation Xrotation
		JOINT LeftHip
		{
			OFFSET 1.42489 -1.84941 0.69647
			CHANNELS 3 Zrotation Yrotation Xrotation
			JOINT LeftKnee
			{
				OFFSET 2.44443 -6.71602 0.00000
				CHANNELS 3 Zrotation Yrotation Xrotation
				JOINT LeftAnkle
				{
					OFFSET 2.62838 -7.22137 0.00000
					CHANNELS 3 Zrotation Yrotation Xrotation
					JOINT LeftToe
					{
						OFFSET 0.24036 -0.66037 2.29953
						CHANNELS 3 Zrotation Yrotation Xrotation
						End Site
						{
							OFFSET 0.00000 -0.00000 1.19837
						}
					}
				}
			}
		}
	}
	JOINT RHipJoint
	{
		OFFSET 0 0 0
		CHANNELS 3 Zrotation Yrotation Xrotation
		JOINT RightHip
		{
			OFFSET -1.37055 -1.84941 0.69647
			CHANNELS 3 Zrotation Yrotation Xrotation
			JOINT RightKnee
			{
				OFFSET -2.54834 -7.00152 0.00000
				CHANNELS 3 Zrotation Yrotation Xrotation
				JOINT RightAnkle
				{
					OFFSET -2.65692 -7.29983 0.00000
					CHANNELS 3 Zrotation Yrotation Xrotation
					JOINT RightToe
					{
						OFFSET -0.18839 -0.51760 2.29390
						CHANNELS 3 Zrotation Yrotation Xrotation
						End Site
						{
							OFFSET -0.00000 -0.00000 1.18261
						}
					}
				}
			}
		}
	}
	JOINT lowerback
	{
		OFFSET 0 0 0
		CHANNELS 3 Zrotation Yrotation Xrotation
		JOINT Chest
		{
			OFFSET 0.05220 2.15489 0.05011
			CHANNELS 3 Zrotation Yrotation Xrotation
			JOINT Chest2
			{
				OFFSET -0.07653 2.14219 -0.05668
				CHANNELS 3 Zrotation Yrotation Xrotation
				JOINT lowerneck
				{
					OFFSET 0 0 0
					CHANNELS 3 Zrotation Yrotation Xrotation
					JOINT Neck
					{
						OFFSET 0.01370 1.58638 0.01447
						CHANNELS 3 Zrotation Yrotation Xrotation
						JOINT Head
						{
							OFFSET 0.23548 1.54190 -0.21747
							CHANNELS 3 Zrotation Yrotation Xrotation
							End Site
							{
								OFFSET 0.07132 1.59823 -0.08163
							}
						}
					}
				}
				JOINT LeftCollar
				{
					OFFSET 0 0 0
					CHANNELS 3 Zrotation Yrotation Xrotation
					JOINT LeftShoulder
					{
						OFFSET 3.47056 1.45357 -0.58896
CHANNELS 3 Zrotation Xrotation Yrotation
						JOINT LeftElbow
						{
OFFSET 0 -5.190690 0.000000
CHANNELS 3 Zrotation Xrotation Yrotation
							JOINT LeftWrist
							{
OFFSET 0 -3.300160 0.000000
CHANNELS 3 Zrotation Xrotation Yrotation
								JOINT lhand
								{
									OFFSET 0 0 0
CHANNELS 3 Zrotation Xrotation Yrotation
									JOINT LFingers
									{
OFFSET 0 -0.707700 0.000000
CHANNELS 3 Zrotation Xrotation Yrotation
										End Site
										{
OFFSET 0 -0.570560 0.000000
										}
									}
								}
								JOINT LThumb
								{
OFFSET 0 0.000000 0.000000
CHANNELS 3 Zrotation Xrotation Yrotation
									End Site
									{
OFFSET 0 -0.579280 0.579280
									}
								}
							}
						}
					}
				}
				JOINT RightCollar
				{
					OFFSET 0 0 0
					CHANNELS 3 Zrotation Yrotation Xrotation
					JOINT RightShoulder
					{
						OFFSET -2.89018 2.03305 -0.26731
CHANNELS 3 Zrotation Xrotation Yrotation
						JOINT RightElbow
						{
OFFSET 0 -5.239240 0.000000
CHANNELS 3 Zrotation Xrotation Yrotation
							JOINT RightWrist
							{
OFFSET 0 -3.329530 0.000000
CHANNELS 3 Zrotation Xrotation Yrotation
								JOINT rhand
								{
									OFFSET 0 0 0
CHANNELS 3 Zrotation Xrotation Yrotation
									JOINT RFingers
									{
OFFSET 0 -0.607410 0.000000
CHANNELS 3 Zrotation Xrotation Yrotation
										End Site
										{
OFFSET 0 -0.489710 0.000000
										}
									}
								}
								JOINT RThumb
								{
OFFSET 0 0.000000 0.000000
CHANNELS 3 Zrotation Xrotation Yrotation
									End Site
									{
OFFSET 0 -0.497190 0.497190
									}
								}
							}
						}
					}
				}
			}
		}
	}
}
MOTION
Frames: 11
Frame Time: 0.008333333333333333
6.146564 17.668748 -19.078271 -175.421083 -3.188113 539.538596 0.000000 0.000000 0.000000 -13.608204 -5.300889 -27.278735 1.677895 8.159706 23.200347 0.317253 2.018863 -11.572601 0.497161 -4.520551 -12.546010 0.000000 0.000000 0.000000 30.787358 -7.591689 -3.486939 -1.471983 -7.666596 21.705873 -1.294544 4.149498 -20.541696 -0.043032 -1.338982 3.682088 7.030023 0.884427 -3.018370 -0.858721 0.851187 2.155305 -4.788186 0.622523 4.060405 -5.123700 -4.097812 -9.543338 11.797791 -6.558508 9.395733 4.017124 -2.867844 4.954124 0.000000 0.000000 0.000000 4.647943 -0.189482 -17.735054 10.013382 -16.760497 1.478838 6.410714 2.414312 3.922692 0.000000 0.000000 0.000000 -7.125000 0.000000 0.000000 -15.184635 25.972100 -7.243583 0.000000 0.000000 0.000000 -0.357461 -6.156391 28.483708 -13.561457 -22.104368 -2.660823 -11.819232 1.517527 8.845020 0.000000 0.000000 0.000000 7.125000 0.000000 0.000000 12.993512 38.699332 2.057744
5.933016 17.629773 -20.707551 -174.051327 -0.810220 540.886980 0.000000 0.000000 0.000000 -13.112478 -3.496219 -25.198688 0.567430 4.824530 13.408893 0.255002 0.718616 -9.827131 0.504725 -4.554318 -12.641627 0.000000 0.000000 0.000000 30.161142 -9.505247 3.196330 -0.987754 -6.325782 17.732769 -0.950213 7.560752 -17.432909 -0.041054 1.305858 -3.590788 8.492226 1.584554 -4.887618 -0.347083 1.539845 1.615438 -4.995972 1.004879 4.684772 -4.707130 -4.008984 -9.783219 11.287068 -6.420220 9.479578 3.795224 -2.798918 4.977705 0.000000 0.000000 0.000000 3.734491 1.617475 -13.842910 8.716182 -14.707014 1.126986 6.226062 5.380559 3.993309 0.000000 0.000000 0.000000 -7.125000 0.000000 0.000000 -15.312016 25.903415 -7.334210 0.000000 0.000000 0.000000 0.399407 -4.812190 29.867247 -13.604086 -22.165848 -2.676909 -11.582318 1.615283 8.745333 0.000000 0.000000 0.000000 7.125000 0.000000 0.000000 13.172182 38.583141 2.125639
5.559008 17.798475 -22.619526 -175.813366 2.886138 541.549002 0.000000 0.000000 0.000000 -16.608263 3.571364 -22.745274 0.809299 5.740978 16.034595 0.053180 0.500255 -4.568417 0.234611 -3.116133 -8.602224 0.000000 0.000000 0.000000 25.894420 -6.572450 8.350732 -1.384328 -7.443816 21.037430 -0.449633 4.996768 -11.943889 -0.606377 4.984408 -13.864185 6.403913 1.805483 -6.402932 -0.959827 1.942721 0.923212 -4.396825 1.151242 4.813809 -4.480050 -3.691241 -10.020795 11.223597 -6.095082 10.029391 3.761027 -2.626701 5.150677 0.000000 0.000000 0.000000 4.416297 2.418613 -10.772570 8.115711 -13.740265 0.979418 6.199322 7.442390 3.824105 0.000000 0.000000 0.000000 -7.125000 0.000000 0.000000 -15.352778 26.067595 -7.293781 0.000000 0.000000 0.000000 1.264845 -2.325135 26.734866 -12.879403 -21.110215 -2.409634 -11.293831 2.583933 8.838995 0.000000 0.000000 0.000000 7.125000 0.000000 0.000000 13.435109 38.654916 2.145640
5.151452 17.989601 -24.245245 -177.776344 4.250180 541.028621 0.000000 0.000000 0.000000 -20.919390 9.833473 -16.341099 0.492007 4.497013 12.479457 0.014026 -3.369960 -3.002111 0.003944 0.404504 1.111413 0.000000 0.000000 0.000000 20.787567 -4.370166 -0.818877 -5.867174 -14.296118 44.441974 0.000577 -1.768066 1.160769 -0.022299 0.939333 -2.582077 3.707697 1.321525 -5.950352 -1.441493 1.556569 0.668610 -3.430906 0.878558 4.173901 -4.220902 -3.971215 -9.771126 11.024883 -5.725901 9.663122 3.715704 -2.142955 4.957490 0.000000 0.000000 0.000000 6.018537 0.251408 -18.040214 10.493364 -17.507498 1.620244 6.576190 1.586367 3.426628 0.000000 0.000000 0.000000 -7.125000 0.000000 0.000000 -15.124019 26.454300 -7.035023 0.000000 0.000000 0.000000 0.464314 -0.752251 24.299072 -13.010471 -21.302497 -2.457075 -11.170910 2.433875 8.966269 0.000000 0.000000 0.000000 7.125000 0.000000 0.000000 13.566215 38.771712 2.127717
4.906398 18.036854 -25.277029 -179.001818 4.640916 540.462524 0.000000 0.000000 0.000000 -22.941070 11.858329 -10.688901 0.289906 3.461634 9.566762 0.081960 -3.373154 -5.261384 0.001020 -0.202426 -0.556107 0.000000 0.000000 0.000000 19.120867 0.815018 -12.740483 -9.954783 -17.384304 59.337128 0.099953 -11.191527 -14.359254 -0.001578 -0.111395 0.306097 1.937032 0.727892 -4.491000 -1.777912 0.939090 1.125638 -2.852096 0.539591 3.742941 -4.200327 -3.710511 -9.888812 10.915360 -5.350131 9.269169 3.703767 -1.986018 4.822845 0.000000 0.000000 0.000000 8.393519 -5.003177 -24.797327 12.977892 -21.254696 2.445254 7.426960 -2.286775 3.095609 0.000000 0.000000 0.000000 -7.125000 0.000000 0.000000 -14.532953 26.779099 -6.627401 0.000000 0.000000 0.000000 0.536481 -2.038158 24.774058 -13.340140 -21.783541 -2.578121 -11.046604 1.907105 8.937988 0.000000 0.000000 0.000000 7.125000 0.000000 0.000000 13.664761 38.734485 2.156598
4.807805 17.855401 -26.028798 -178.838015 4.648198 540.475730 0.000000 0.000000 0.000000 -22.570925 11.205187 -12.998613 1.164772 6.850802 19.274305 0.476489 -5.610398 -12.328530 0.013988 -0.763868 -2.099287 0.000000 0.000000 0.000000 19.640669 5.898951 -17.506395 -5.923052 -14.352701 44.670951 -1.191136 -5.138433 -23.064449 -0.567055 4.821576 -13.400629 1.747151 0.407401 -4.392025 -1.441753 0.508003 1.465132 -2.430669 0.321161 4.005318 -4.129234 -3.407103 -9.537926 10.807499 -4.927462 9.038516 3.693158 -1.805496 4.654373 0.000000 0.000000 0.000000 8.811082 -7.610855 -28.987834 13.933064 -22.638963 2.802302 7.112158 -3.736173 2.623073 0.000000 0.000000 0.000000 -7.125000 0.000000 0.000000 -14.827287 27.238515 -6.604078 0.000000 0.000000 0.000000 0.143044 -2.530528 25.335037 -13.667729 -22.257686 -2.700955 -11.185848 1.195920 8.961903 0.000000 0.000000 0.000000 7.125000 0.000000 0.000000 13.552762 38.768519 2.126578
4.856593 17.783904 -26.731434 -179.204771 3.683690 540.113396 0.000000 0.000000 0.000000 -22.390100 11.456348 -10.441404 1.307683 7.243925 20.440068 0.695175 -6.717129 -14.906317 0.028010 -1.080288 -2.969657 0.000000 0.000000 0.000000 19.496556 8.524630 -16.414060 -4.259808 -12.498251 37.518270 -1.518277 -1.077415 -23.703503 -0.567767 4.824248 -13.408199 1.866388 0.069757 -5.004476 -1.488863 0.043739 1.539748 -2.585837 0.099853 4.404070 -3.724710 -3.355200 -10.115409 9.843979 -4.888419 9.813886 3.322708 -1.805783 4.950025 0.000000 0.000000 0.000000 7.596579 -7.286509 -29.152018 12.063397 -19.899490 2.123889 6.873101 -1.668517 2.664767 0.000000 0.000000 0.000000 -7.125000 0.000000 0.000000 -15.000453 27.196445 -6.701821 0.000000 0.000000 0.000000 0.027251 -2.192447 24.199787 -12.875053 -21.103831 -2.408103 -11.084894 2.178271 9.015299 0.000000 0.000000 0.000000 7.125000 0.000000 0.000000 13.649494 38.813751 2.126897
5.069647 17.812796 -27.374530 -178.555272 1.663425 540.365980 0.000000 0.000000 0.000000 -20.897183 7.177389 -5.658269 1.152409 6.815906 19.171176 0.909409 -3.601292 -17.170433 0.036939 -1.240543 -3.410952 0.000000 0.000000 0.000000 21.439302 5.577649 -12.389347 -3.227879 -11.055060 32.465863 -1.151501 -2.209006 -21.178066 -0.052438 1.477898 -4.064738 2.675209 0.172058 -6.406219 -1.237422 0.074681 1.170394 -2.781873 0.132148 4.817738 -4.073234 -3.547789 -9.255966 10.368178 -5.088228 8.988124 3.536294 -1.922537 4.589478 0.000000 0.000000 0.000000 5.452387 -5.276477 -27.201603 9.654051 -16.196574 1.376911 6.511504 1.974455 2.727041 0.000000 0.000000 0.000000 -7.125000 0.000000 0.000000 -15.262107 27.133517 -6.850329 0.000000 0.000000 0.000000 0.071512 -0.994521 21.087535 -11.657137 -19.288406 -1.987612 -10.998296 4.232264 8.955954 0.000000 0.000000 0.000000 7.125000 0.000000 0.000000 13.709448 38.748677 2.159136
5.335177 17.842800 -27.815909 -177.501289 -0.181606 540.561826 0.000000 0.000000 0.000000 -18.994636 3.906367 -2.725505 1.109059 6.691015 18.803044 1.029413 -1.175984 -18.820794 0.112861 -2.165763 -5.964012 0.000000 0.000000 0.000000 23.392399 0.758491 -10.764669 -2.659660 -10.122556 29.374616 -1.218957 0.038555 -20.871343 -0.027909 1.077979 -2.963467 3.502955 0.183544 -7.136518 -0.900895 -0.025172 1.076703 -2.912006 0.102778 5.128686 -4.635736 -3.567003 -8.824899 10.804476 -5.703898 8.759592 3.703751 -2.514773 4.517253 0.000000 0.000000 0.000000 4.068076 -2.888458 -25.157850 9.046749 -15.234943 1.212356 6.450238 3.106040 3.045661 0.000000 0.000000 0.000000 -7.125000 0.000000 0.000000 -15.266061 26.823839 -6.967868 0.000000 0.000000 0.000000 0.190568 -1.063335 21.162618 -11.918672 -19.682590 -2.074844 -11.012578 3.814366 8.957752 0.000000 0.000000 0.000000 7.125000 0.000000 0.000000 13.697724 38.751607 2.156175
5.536796 17.838057 -28.107454 -177.245568 -1.280301 541.167117 0.000000 0.000000 0.000000 -18.003730 3.132289 -1.917574 1.079585 6.604332 18.548290 1.101997 -1.049224 -19.523688 0.142543 -2.433018 -6.703990 0.000000 0.000000 0.000000 24.294420 -1.788384 -10.792794 -2.516923 -9.868617 28.552259 -1.292998 1.527796 -21.051506 -0.017281 0.848583 -2.332241 3.586508 0.394471 -7.961209 -0.923797 0.217859 0.961850 -2.956621 0.229850 5.495478 -4.763869 -4.002920 -9.606101 10.791238 -6.390880 9.955713 3.654035 -2.809672 5.074350 0.000000 0.000000 0.000000 3.751353 -2.207593 -23.258208 8.996467 -15.154763 1.199224 6.541252 3.574238 3.233607 0.000000 0.000000 0.000000 -7.125000 0.000000 0.000000 -15.174314 26.641689 -6.990664 0.000000 0.000000 0.000000 0.346658 -1.791788 22.436056 -12.437327 -20.457219 -2.252847 -11.069066 2.890933 8.970191 0.000000 0.000000 0.000000 7.125000 0.000000 0.000000 13.652874 38.767947 2.143177
5.661888 17.832684 -28.247861 -177.124145 -2.610640 541.658172 0.000000 0.000000 0.000000 -17.284438 2.588869 -2.078399 1.095639 6.651670 18.687331 1.117984 -1.809165 -19.466586 0.160300 -2.579716 -7.110832 0.000000 0.000000 0.000000 25.080139 -1.725476 -10.690639 -2.491067 -9.821681 28.401133 -1.363249 0.343703 -21.977718 -0.013937 0.761498 -2.092791 3.520481 0.452467 -7.944276 -0.953618 0.303131 0.770688 -2.939595 0.262155 5.291366 -5.217622 -4.165212 -8.911791 11.534215 -6.595348 9.140914 3.957203 -2.932168 4.764603 0.000000 0.000000 0.000000 4.065099 -2.365602 -23.180871 9.117096 -15.346830 1.230916 6.582823 3.545794 3.205073 0.000000 0.000000 0.000000 -7.125000 0.000000 0.000000 -15.147037 26.669591 -6.966904 0.000000 0.000000 0.000000 0.458952 -1.837117 22.974734 -12.556162 -20.633416 -2.294545 -11.037091 2.801152 9.166867 0.000000 0.000000 0.000000 7.125000 0.000000 0.000000 13.723290 38.959777 2.088434
